# xmcd
#
# Track frame offsets:
# 150
# 25394
# 48104
# 82178
# 102098
# 128382
# 148859
# 179031
# 192513
# 232435
# 257700
# 285917
# 317396
#
# Disc length: 4581 seconds
#
#
# Revision: 12
# Processed by: cddbd v1.5.1PL0 Copyright (c) Steve Scherf et al.
# Submitted via: FreeRIP 2.60 
#
DISCID=b911e30d
DTITLE=Gary Moore - Blues Alive
DYEAR=1993
DGENRE=Blues
TTITLE0=Cold Day In Hell
TTITLE1=Walking By Myself
TTITLE2=Story Of The Blues
TTITLE3=Oh Pretty Woman
TTITLE4=Separate Ways
TTITLE5=Too Tired
TTITLE6=Still Got The Blues
TTITLE7=Since I Met You Baby
TTITLE8=The Sky Is Crying
TTITLE9=Further On Up The Road
TTITLE10=King Of The Blues
TTITLE11=Parisienne Walkways
TTITLE12=Jumpin' At Shadows
EXTD=Virgin Records\n\nCDVX 2716\n0777 7 87835 2 7 \n\nProduced by Gary Moore\nMixed by Gary Moore and Ian Taylor\nEngineered by Ian Taylor\n\nRecorded at the following shows: Universal Amphitheatre, Los Angeles, 20/5/92 - Hammersmith Odeon london 8/6/92;
EXTD=Le Zenith, Paris, 13/6/92 - The Royal Albert Hall, London, 5/10/92.\n\nAdditional engineering by Rod O'Brien (Design FX Audio) -- Recorded on Design FX Mobile L.A. and the Manor Mobile -- Assisted by Will Shapland and Dave Porter -- Mixed at Outside
EXTD=Studios, Assisted by Andy Baker, Mastered by Chris Blair at Abbey Road.\n\nManagement: Stewart Young for Port Rock Management\nDesign and Artwork: Bill Smith Studio. Photography: Gered Markowitz\n\nTommy Eyre: Keyboards -- Andy Pyle: Bass -- Graham W
EXTD=alker: Drums -- Martin Drover: Trumpet -- Frank Mead: Alto Sax - Harmonica --Mick Pentalow: Tenor Sax -- Mick Payn: Baritone Sax -- Candi Mackenzie: Backing Vocals -- Carol Thompson: Backing Vocals, except Juliet Roberts: backing vocals on 1\n\nSpec
EXTD=ial Guest Albert Collins, Guitar and Vocals on Too Tired\nVery Special Thanks to Geroge Harrison\nSpecial Thanks To: John Wooler, Steve Barret, Alicia Winter and Jon Webster\n\nFor Albert King
EXTT0=
EXTT1=
EXTT2=
EXTT3=
EXTT4=
EXTT5=
EXTT6=
EXTT7=
EXTT8=
EXTT9=
EXTT10=
EXTT11=
EXTT12=
PLAYORDER=
